<svg width="35" height="35" viewBox="0 0 35 35" fill="none" xmlns="http://www.w3.org/2000/svg">
<path d="M25.5072 1H9.00651C7.89743 1 7 1.80429 7 2.79485V19.3972H9.0573V3.79386C9.0573 3.26896 9.53988 2.83718 10.1241 2.83718H24.4151C24.9993 2.83718 25.4818 3.26049 25.4818 3.79386V27.3385C25.4818 28.0328 24.8553 28.6 24.0764 28.6H10.3188C9.62454 28.6 9.0573 28.092 9.0573 27.4655V19.3972H7V32.3082C7 33.3072 7.90589 34.12 9.02344 34.12H25.5326C26.6417 34.12 27.5391 33.3157 27.5391 32.3252V2.81178C27.5391 1.81276 26.6333 1 25.5157 1H25.5072ZM19.2422 32.3082H15.1361C14.5688 32.3082 14.1117 31.8849 14.1117 31.3685C14.1117 30.852 14.5688 30.4287 15.1361 30.4287H19.2422C19.8095 30.4287 20.2666 30.852 20.2666 31.3685C20.2666 31.8849 19.8095 32.3082 19.2422 32.3082Z" fill="#17A54D"/>
<path fill-rule="evenodd" clip-rule="evenodd" d="M17.3544 13.835C16.1268 13.835 15.1278 14.834 15.1278 16.0616C15.1278 17.2892 16.1268 18.2882 17.3544 18.2882C18.582 18.2882 19.5811 17.2892 19.5811 16.0616C19.5811 14.834 18.582 13.835 17.3544 13.835Z" fill="#17A54D"/>
<mask id="mask0_1191_76" style="mask-type:luminance" maskUnits="userSpaceOnUse" x="15" y="13" width="5" height="6">
<path d="M17.3544 13.835C16.1268 13.835 15.1278 14.834 15.1278 16.0616C15.1278 17.2892 16.1268 18.2882 17.3544 18.2882C18.582 18.2882 19.5811 17.2892 19.5811 16.0616C19.5811 14.834 18.582 13.835 17.3544 13.835Z" fill="white"/>
</mask>
<g mask="url(#mask0_1191_76)">
<path d="M88.8095 -1.48047H-53.2797V251.119H88.8095V-1.48047Z" fill="#17A54D"/>
<mask id="mask1_1191_76" style="mask-type:luminance" maskUnits="userSpaceOnUse" x="-54" y="-2" width="143" height="254">
<path d="M88.8095 -1.48047H-53.2797V251.119H88.8095V-1.48047Z" fill="white"/>
</mask>
<g mask="url(#mask1_1191_76)">
<path d="M21.5621 11.8623H13.1636V20.2524H21.5621V11.8623Z" fill="#17A54D"/>
</g>
</g>
<path fill-rule="evenodd" clip-rule="evenodd" d="M18.5143 11.5829C18.5143 11.5829 18.4635 11.566 18.3619 11.5406C18.8784 11.3882 19.5218 11.2189 20.2414 11.1003C19.2339 11.1003 18.3873 11.1511 17.6592 11.2612C17.5576 11.2781 17.456 11.2951 17.3544 11.312C17.2613 11.2951 17.1597 11.2781 17.0497 11.2612C16.3216 11.1511 15.4749 11.1003 14.4674 11.1003C15.1871 11.2273 15.8305 11.3882 16.347 11.5406C16.2538 11.566 16.1946 11.5829 16.1946 11.5829C12.8673 12.6243 10.3698 14.9017 10.5476 16.7643C10.7 18.3136 12.2747 19.0925 14.8484 18.83C13.4176 18.5676 12.8335 17.848 12.7234 16.7558C12.5625 15.0795 14.4674 13.0899 17.1682 11.9554C17.1682 11.9554 17.2359 11.93 17.3544 11.8877C17.473 11.93 17.5407 11.9554 17.5407 11.9554C20.2414 13.0984 22.1463 15.0795 21.9855 16.7558C21.8839 17.848 21.2912 18.576 19.8604 18.83C22.4342 19.101 24.0174 18.3136 24.1613 16.7643C24.3391 14.9017 21.8331 12.6243 18.5143 11.5829Z" fill="#17A54D"/>
<mask id="mask2_1191_76" style="mask-type:luminance" maskUnits="userSpaceOnUse" x="10" y="11" width="15" height="8">
<path d="M18.5143 11.5829C18.5143 11.5829 18.4635 11.566 18.3619 11.5406C18.8784 11.3882 19.5218 11.2189 20.2414 11.1003C19.2339 11.1003 18.3873 11.1511 17.6592 11.2612C17.5576 11.2781 17.456 11.2951 17.3544 11.312C17.2613 11.2951 17.1597 11.2781 17.0497 11.2612C16.3216 11.1511 15.4749 11.1003 14.4674 11.1003C15.1871 11.2273 15.8305 11.3882 16.347 11.5406C16.2538 11.566 16.1946 11.5829 16.1946 11.5829C12.8673 12.6243 10.3698 14.9017 10.5476 16.7643C10.7 18.3136 12.2747 19.0925 14.8484 18.83C13.4176 18.5676 12.8335 17.848 12.7234 16.7558C12.5625 15.0795 14.4674 13.0899 17.1682 11.9554C17.1682 11.9554 17.2359 11.93 17.3544 11.8877C17.473 11.93 17.5407 11.9554 17.5407 11.9554C20.2414 13.0984 22.1463 15.0795 21.9855 16.7558C21.8839 17.848 21.2912 18.576 19.8604 18.83C22.4342 19.101 24.0174 18.3136 24.1613 16.7643C24.3391 14.9017 21.8331 12.6243 18.5143 11.5829Z" fill="white"/>
</mask>
<g mask="url(#mask2_1191_76)">
<path d="M88.8097 -1.48047H-53.2795V251.119H88.8097V-1.48047Z" fill="#17A54D"/>
<mask id="mask3_1191_76" style="mask-type:luminance" maskUnits="userSpaceOnUse" x="-54" y="-2" width="143" height="254">
<path d="M88.8097 -1.48047H-53.2795V251.119H88.8097V-1.48047Z" fill="white"/>
</mask>
<g mask="url(#mask3_1191_76)">
<path d="M26.1424 9.12769H8.56647V20.8535H26.1424V9.12769Z" fill="#17A54D"/>
</g>
</g>
</svg>
