<?xml version="1.0" encoding="UTF-8"?>
<!DOCTYPE svg PUBLIC "-//W3C//DTD SVG 1.1//EN" "http://www.w3.org/Graphics/SVG/1.1/DTD/svg11.dtd">
<!-- Creator: CorelDRAW X8 -->
<svg xmlns="http://www.w3.org/2000/svg" xml:space="preserve" width="16.9332mm" height="16.9332mm" version="1.1" style="shape-rendering:geometricPrecision; text-rendering:geometricPrecision; image-rendering:optimizeQuality; fill-rule:evenodd; clip-rule:evenodd"
viewBox="0 0 1693 1693"
 xmlns:xlink="http://www.w3.org/1999/xlink">
 <defs>
  <style type="text/css">
   <![CDATA[
    .fil0 {fill:#17A54D}
   ]]>
  </style>
 </defs>
 <g id="Camada_x0020_1">
  <metadata id="CorelCorpID_0Corel-Layer"/>
  <g id="_1703576431376">
   <rect class="fil0" x="116" y="179" width="1122" height="243" rx="125" ry="111"/>
   <path class="fil0" d="M228 725l1238 0c61,0 111,50 111,111l0 21c0,61 -50,111 -111,111l-1238 0c-62,0 -112,-50 -112,-111l0 -21c0,-61 50,-111 112,-111z"/>
   <path class="fil0" d="M228 1271l620 0c61,0 111,50 111,111l0 21c0,61 -50,111 -111,111l-620 0c-62,0 -112,-50 -112,-111l0 -21c0,-61 50,-111 112,-111z"/>
  </g>
 </g>
</svg>
