<?xml version="1.0" encoding="utf-8"?>
<!-- Generator: Adobe Illustrator 25.4.6, SVG Export Plug-In . SVG Version: 6.00 Build 0)  -->
<svg version="1.1" id="Capa_1" xmlns="http://www.w3.org/2000/svg" xmlns:xlink="http://www.w3.org/1999/xlink" x="0px" y="0px"
	 width="86.7px" height="82.2px" viewBox="0 0 86.7 82.2" style="enable-background:new 0 0 86.7 82.2;" xml:space="preserve">
<style type="text/css">
	.st0{fill:#09A44D;}
	.st1{fill:#FFFFFF;}
</style>
<g>
	<g>
		<path class="st0" d="M19.4,54.1c0.2-7.3,2.3-13,6.6-17.8c1.9-2.1,4.1-2.9,6.9-2.4c2.8,0.6,5.6,1.7,8.4,1.6c4-0.1,8-0.8,11.9-1.5
			c3.4-0.7,5.9,0.3,8,2.9c5.5,6.9,7.2,14.7,5,23.2c-1.1,4.3-2.7,5.2-7,4.4c-3-0.5-6-1.2-9-1.7c-6.6-1.3-13.1-0.3-19.6,1.1
			c-1,0.2-1.9,0.4-2.9,0.6c-4.4,0.8-6.1-0.2-7.3-4.5C19.9,57.9,19.7,55.6,19.4,54.1z M60.3,49.5c0.1-2.5-2-4.5-4.5-4.5
			c-2.5,0-4.4,1.8-4.5,4.2c-0.1,2.5,1.9,4.6,4.3,4.8C57.9,54,60.2,51.9,60.3,49.5z M35.4,49.4c0-2.6-1.9-4.5-4.5-4.4
			c-2.4,0-4.4,1.9-4.5,4.3c-0.1,2.4,2.1,4.6,4.5,4.7C33.3,54,35.4,51.8,35.4,49.4z"/>
		<path class="st1" d="M60.3,49.5c-0.1,2.4-2.3,4.6-4.7,4.5c-2.5-0.1-4.5-2.3-4.3-4.8c0.1-2.4,2.1-4.3,4.5-4.2
			C58.3,44.9,60.3,47,60.3,49.5z"/>
		<path class="st1" d="M35.4,49.4c0,2.5-2.1,4.6-4.5,4.6c-2.4,0-4.5-2.3-4.5-4.7c0.1-2.4,2-4.3,4.5-4.3
			C33.5,44.9,35.4,46.8,35.4,49.4z"/>
	</g>
	<g>
		<path class="st0" d="M12.8,35.3c-0.8,1.3-1.5,1.8-3,1.9c-4.3,0.3-8,3.9-8.1,8.2c-0.2,4.5-0.2,9.1,0,13.6c0.1,4.2,3.7,7.9,7.8,8.2
			c1.7,0.1,2.8,0.5,3.4,2.1c0.6,1.6,2,2,3.5,1.3c1.5-0.8,1.7-2.1,0.9-3.6c-0.2-0.4-0.5-0.9-0.7-1.3c-5.3-11.3-4.4-22.2,3.3-32
			c5.6-7.1,12.6-11,20.7-11.5l0.7-4.8C28.7,18.1,19.2,24.3,12.8,35.3z"/>
		<path class="st0" d="M85.1,45.7c-0.1-4.6-3.7-8.3-8.3-8.5c-1.5-0.1-2.1-0.7-2.8-1.8C67.5,24.2,58,18,45.4,17.4l0.6,4.9
			c1.4,0.1,2.8,0.4,4.2,0.7c20.9,4.7,30.1,29.7,17.5,47c-3.5,4.8-11.9,7.3-17.6,5.2c-0.2-0.1-0.3-0.1-0.4-0.2
			c-3.1-3-6.9-1.5-10.4-1.5c-1.9,0-3.3,2.4-3.1,4.4c0.2,2.4,2,2.3,3.7,2.3c3.2,0,6.4,0,9.6,0c2.4,0,4.8-0.1,7.2,0
			c8,0.5,13.3-3.4,16.8-10.2c0.9-1.7,1.7-2.7,3.9-2.9c4.1-0.2,7.6-4.2,7.7-8.3C85.2,54.5,85.2,50.1,85.1,45.7z"/>
		<path class="st0" d="M45.4,17.4L43.4,1.9l-2.2,15.5c0.7,0,1.5-0.1,2.2-0.1C44.1,17.4,44.7,17.4,45.4,17.4z"/>
		<path class="st0" d="M43.4,17.4c-0.7,0-1.5,0-2.2,0.1l-0.7,4.8c1.8-0.1,3.6-0.1,5.5,0.1l-0.6-4.9C44.7,17.4,44.1,17.4,43.4,17.4z"
			/>
	</g>
	<circle class="st0" cx="43.3" cy="6.6" r="4.6"/>
</g>
</svg>
