<svg width="35" height="35" viewBox="0 0 35 35" fill="none" xmlns="http://www.w3.org/2000/svg">
<path fill-rule="evenodd" clip-rule="evenodd" d="M33.5281 10.3006C32.6934 10.3648 31.8588 10.4106 31.0242 10.5115C30.7674 10.539 30.4739 10.6766 30.2813 10.8509C29.6943 11.3829 29.144 11.9607 28.4744 12.621C28.4102 11.7589 28.3919 10.9976 28.2818 10.2547C28.2268 9.89701 28.0617 9.52097 27.8324 9.24581C27.3463 8.67716 26.7868 8.16354 26.1539 7.53068C27.0161 7.46648 27.7773 7.44813 28.5294 7.33807C28.8871 7.28304 29.2632 7.10878 29.5383 6.87948C30.107 6.39337 30.6206 5.83389 31.2443 5.21021C31.3085 6.09987 31.3452 6.87948 31.4461 7.65908C31.4919 7.97093 31.6387 8.31946 31.8588 8.54875C32.4 9.12658 32.9961 9.64937 33.5739 10.1905L33.5281 10.3006Z" fill="#17A54D"/>
<mask id="mask0_1191_75" style="mask-type:luminance" maskUnits="userSpaceOnUse" x="26" y="5" width="8" height="8">
<path d="M33.5281 10.3006C32.6934 10.3648 31.8588 10.4106 31.0242 10.5115C30.7674 10.539 30.4739 10.6766 30.2813 10.8509C29.6943 11.3829 29.144 11.9607 28.4744 12.621C28.4102 11.7589 28.3919 10.9976 28.2818 10.2547C28.2268 9.89701 28.0617 9.52097 27.8324 9.24581C27.3463 8.67716 26.7868 8.16354 26.1539 7.53068C27.0161 7.46648 27.7773 7.44813 28.5294 7.33807C28.8871 7.28304 29.2632 7.10878 29.5383 6.87948C30.107 6.39337 30.6206 5.83389 31.2443 5.21021C31.3085 6.09987 31.3452 6.87948 31.4461 7.65908C31.4919 7.97093 31.6387 8.31946 31.8588 8.54875C32.4 9.12658 32.9961 9.64937 33.5739 10.1905L33.5281 10.3006Z" fill="white"/>
</mask>
<g mask="url(#mask0_1191_75)">
<path d="M26.3922 1.29301L22.2377 12.3811L33.3 16.5259L37.4545 5.43785L26.3922 1.29301Z" fill="#17A54D"/>
</g>
<path fill-rule="evenodd" clip-rule="evenodd" d="M33.3446 17.6561C32.7943 17.702 32.244 17.7295 31.7029 17.7937C31.5286 17.812 31.3452 17.9037 31.2168 18.0138C30.8315 18.3623 30.4647 18.7384 30.0244 19.1695C29.9786 18.6008 29.9694 18.1055 29.896 17.6102C29.8593 17.3809 29.7493 17.1241 29.6025 16.9499C29.2815 16.5738 28.9146 16.2436 28.5019 15.8217C29.0705 15.7759 29.5658 15.7667 30.0611 15.6933C30.2904 15.6566 30.5472 15.5466 30.7215 15.3907C31.0975 15.0696 31.4277 14.7028 31.8404 14.29C31.8863 14.877 31.9046 15.3907 31.978 15.8951C32.0055 16.0969 32.1064 16.3262 32.244 16.4821C32.6017 16.8582 32.9869 17.2067 33.3721 17.5552L33.3446 17.6286V17.6561Z" fill="#17A54D"/>
<mask id="mask1_1191_75" style="mask-type:luminance" maskUnits="userSpaceOnUse" x="28" y="14" width="6" height="6">
<path d="M33.3446 17.6561C32.7943 17.702 32.244 17.7295 31.7029 17.7937C31.5286 17.812 31.3452 17.9037 31.2168 18.0138C30.8315 18.3623 30.4647 18.7384 30.0244 19.1695C29.9786 18.6008 29.9694 18.1055 29.896 17.6102C29.8593 17.3809 29.7493 17.1241 29.6025 16.9499C29.2815 16.5738 28.9146 16.2436 28.5019 15.8217C29.0705 15.7759 29.5658 15.7667 30.0611 15.6933C30.2904 15.6566 30.5472 15.5466 30.7215 15.3907C31.0975 15.0696 31.4277 14.7028 31.8404 14.29C31.8863 14.877 31.9046 15.3907 31.978 15.8951C32.0055 16.0969 32.1064 16.3262 32.244 16.4821C32.6017 16.8582 32.9869 17.2067 33.3721 17.5552L33.3446 17.6286V17.6561Z" fill="white"/>
</mask>
<g mask="url(#mask1_1191_75)">
<path d="M27.7386 9.70478L23.8995 19.9512L34.1287 23.7839L37.9678 13.5375L27.7386 9.70478Z" fill="#17A54D"/>
</g>
<path fill-rule="evenodd" clip-rule="evenodd" d="M26.3374 5.35689C25.787 5.40275 25.2367 5.43027 24.6956 5.49447C24.5213 5.51281 24.3379 5.60453 24.2095 5.71459C23.8243 6.06312 23.4574 6.43917 23.0172 6.87942C22.9713 6.31076 22.9621 5.81548 22.8887 5.32021C22.8521 5.09091 22.742 4.8341 22.5953 4.65983C22.2742 4.28379 21.9074 3.9536 21.4946 3.5317C22.0633 3.48584 22.5677 3.47667 23.0538 3.40329C23.2831 3.3666 23.5399 3.25654 23.7142 3.10062C24.0903 2.77961 24.4204 2.41273 24.8332 2C24.879 2.587 24.8974 3.10062 24.9708 3.60507C24.9983 3.80685 25.0992 4.03615 25.2367 4.19207C25.5853 4.56811 25.9797 4.91664 26.3649 5.27435L26.3374 5.34772V5.35689Z" fill="#17A54D"/>
<mask id="mask2_1191_75" style="mask-type:luminance" maskUnits="userSpaceOnUse" x="21" y="2" width="6" height="5">
<path d="M26.3374 5.35689C25.787 5.40275 25.2367 5.43027 24.6956 5.49447C24.5213 5.51281 24.3379 5.60453 24.2095 5.71459C23.8243 6.06312 23.4574 6.43917 23.0172 6.87942C22.9713 6.31076 22.9621 5.81548 22.8887 5.32021C22.8521 5.09091 22.742 4.8341 22.5953 4.65983C22.2742 4.28379 21.9074 3.9536 21.4946 3.5317C22.0633 3.48584 22.5677 3.47667 23.0538 3.40329C23.2831 3.3666 23.5399 3.25654 23.7142 3.10062C24.0903 2.77961 24.4204 2.41273 24.8332 2C24.879 2.587 24.8974 3.10062 24.9708 3.60507C24.9983 3.80685 25.0992 4.03615 25.2367 4.19207C25.5853 4.56811 25.9797 4.91664 26.3649 5.27435L26.3374 5.34772V5.35689Z" fill="white"/>
</mask>
<g mask="url(#mask2_1191_75)">
<path d="M20.7239 -2.60386L16.8815 7.65112L27.1107 11.4838L30.9531 1.22883L20.7239 -2.60386Z" fill="#17A54D"/>
</g>
<path d="M15.9729 13.5107C16.2205 13.7033 16.4682 13.85 16.6883 14.0885C17.101 14.5379 17.3028 15.1066 17.1836 15.7211C17.0735 16.2622 16.6608 16.7025 16.1747 16.9501C15.5877 17.2528 14.9365 17.1977 14.3586 16.9042C14.2211 16.8309 14.0927 16.7483 13.9643 16.6566C13.6799 16.4548 13.4139 16.2072 13.1204 16.0237C12.5518 15.666 11.9006 15.4459 11.2769 15.1983C10.7908 15.0057 10.2497 14.7489 9.72687 14.6938C9.14904 14.5563 8.57122 14.3912 8.00256 14.2261C6.87443 13.8867 5.75546 13.5107 4.68236 13.0062C3.95778 12.6669 3.11397 12.2541 2.65538 11.5662C2.20596 11.6029 1.70151 11.502 1.31629 11.2544C0.811842 10.9334 0.573375 10.3831 0.518344 9.81442C0.5 9.75938 0.5 9.70435 0.5 9.65849C0.5 9.65849 0.509172 5.6504 0.509172 5.64123C0.509172 3.85272 3.12315 3.80686 4.39803 3.58674C6.09482 3.29324 7.79161 2.99974 9.4884 2.69707C10.6074 2.50446 11.7355 2.32102 12.8545 2.11007C12.8545 2.11007 14.6521 1.77989 15.8903 3.13732L20.6964 8.89723L20.7514 10.218C20.302 10.218 19.7975 10.1446 19.3573 10.1446H16.6516C15.5693 10.1446 14.0285 9.48423 13.1755 10.4106C12.2675 11.392 15.3125 13.0154 15.9729 13.5198V13.5107Z" fill="#17A54D"/>
<path d="M19.0363 22.6732C18.7887 22.4805 18.541 22.3338 18.3209 22.0953C17.9082 21.6459 17.7064 21.0773 17.8256 20.4627C17.9357 19.9216 18.3484 19.4814 18.8345 19.2337C19.4215 18.931 20.0727 18.9861 20.6505 19.2796C20.7881 19.353 20.9165 19.4355 21.0449 19.5272C21.3293 19.729 21.5952 19.9766 21.8887 20.1601C22.4574 20.5178 23.1086 20.7379 23.7323 20.9855C24.2184 21.1781 24.7595 21.435 25.2823 21.49C25.8601 21.6276 26.438 21.7927 27.0066 21.9578C28.1348 22.2971 29.2537 22.6732 30.3268 23.1776C31.0514 23.517 31.8952 23.9297 32.3538 24.6176C32.8032 24.5809 33.3077 24.6818 33.6929 24.9294C34.1973 25.2504 34.4358 25.8008 34.4908 26.3694C34.4908 26.4153 34.5 26.4611 34.5 26.507C34.5 26.507 34.4908 30.5151 34.4908 30.5242C34.4908 32.3128 31.8769 32.3586 30.602 32.5787C28.9052 32.8722 27.2084 33.1657 25.5116 33.4684C24.3926 33.661 23.2645 33.8445 22.1455 34.0554C22.1455 34.0554 20.3479 34.3856 19.1097 33.0282L14.3036 27.2682L14.2486 25.9475C14.698 25.9475 15.2025 26.0209 15.6427 26.0209H18.3484C19.4307 26.0209 20.9716 26.6813 21.8245 25.7549C22.7325 24.7735 19.6875 23.1501 19.0271 22.6456L19.0363 22.6732Z" fill="#17A54D"/>
<path d="M16.1563 27.6442C10.8734 27.6442 6.57178 23.3426 6.57178 18.0597C6.57178 12.7767 10.8734 8.4751 16.1563 8.4751C21.4393 8.4751 25.7409 12.7767 25.7409 18.0597C25.7409 23.3426 21.4393 27.6442 16.1563 27.6442ZM16.1563 10.071C11.7539 10.071 8.16768 13.6572 8.16768 18.0597C8.16768 22.4622 11.7539 26.0483 16.1563 26.0483C20.5588 26.0483 24.145 22.4622 24.145 18.0597C24.145 13.6572 20.5588 10.071 16.1563 10.071Z" fill="#17A54D"/>
</svg>
