<?xml version="1.0" encoding="UTF-8"?>
<svg width="50px" height="50px" viewBox="0 0 50 50" version="1.1" xmlns="http://www.w3.org/2000/svg" xmlns:xlink="http://www.w3.org/1999/xlink">
    <!-- Generator: Sketch 55.1 (78136) - https://sketchapp.com -->
    <title>cuentas</title>
    <desc>Created with Sketch.</desc>
    <g id="Iconos-verde-fuerte" stroke="none" stroke-width="1" fill="none" fill-rule="evenodd">
        <g id="Productos" transform="translate(-36.000000, -287.000000)">
            <g id="cuentas" transform="translate(36.000000, 287.000000)">
                <path d="M50,25 C50,38.8071875 38.8071875,50 25,50 C11.1928125,50 0,38.8071875 0,25 C0,11.1928125 11.1928125,0 25,0 C38.8071875,0 50,11.1928125 50,25" id="Fill" fill="#278252"></path>
                <path d="M24.3861011,24 L24.3861011,25.6554 C24.7736011,25.52675 25.1409511,25.26945 25.1626511,24.87885 C25.1657511,24.83235 25.1626511,24.78275 25.1580011,24.7347 C25.1223511,24.4557 24.8759011,24.2201 24.3861011,24" id="Fill"></path>
                <path d="M24.340805,20.95015 C24.345455,20.98425 24.354755,21.02145 24.370255,21.0602 C24.495805,21.36245 24.861605,21.55775 25.216555,21.69725 L25.216555,20 C24.918955,20.0806 24.652355,20.2325 24.498905,20.4123 C24.364055,20.5704 24.312905,20.74245 24.340805,20.95015" id="Fill"></path>
                <path d="M17.54925,33.1407 L33.14845,33.1407 L33.14845,31.5907 L17.54925,31.5907 L17.54925,33.1407 Z M34.34505,13 L16.4162,13 C14.53295,13 13,14.53295 13,16.4162 L13,34.40395 C13,36.2872 14.53295,37.82015 16.4162,37.82015 L34.34505,37.82015 C36.2283,37.82015 37.76125,36.2872 37.76125,34.40395 L37.76125,16.4162 C37.76125,14.53295 36.2283,13 34.34505,13 L34.34505,13 Z" id="Fill" fill="#FFFFFF"></path>
                <path d="M24.9410503,27.5690595 L24.9410503,23.3912091 L25.6242363,23.6602135 C26.671118,24.0724232 27.2824149,24.5638947 27.3809284,25.3377391 C27.3946431,25.4520282 27.3994173,25.557591 27.3930565,25.6614692 C27.3391953,26.5691312 26.5586057,27.1900036 25.5551293,27.425157 L24.9410503,27.5690595 Z M22.0229206,21.270805 C21.9806702,21.1688344 21.9520219,21.0611927 21.9353247,20.9438381 C21.8752508,20.4676963 22.0020493,20.0365813 22.311809,19.6711105 C22.6737068,19.2455824 23.2882646,18.9348922 23.9338525,18.8224474 L24.5196479,18.720417 L24.5196479,22.862653 L23.8544246,22.6297488 C22.8825216,22.2894715 22.285565,21.9061598 22.0229206,21.270805 Z M24.9410503,16.5 L24.5196479,16.5 L24.5196479,18.3380095 L24.073121,18.3860393 C23.2450414,18.47511 22.445079,18.8654645 21.9897962,19.3987889 C21.6034371,19.8552792 21.44197,20.4028493 21.5187213,21.0002531 C21.536949,21.1460748 21.5746139,21.2882974 21.6327236,21.4287297 C21.9768585,22.2624699 22.7464837,22.7337407 24.1690663,23.1792171 L24.5196479,23.2890004 L24.5196479,27.5309595 L23.9117839,27.396664 C22.9914197,27.1933277 22.2726389,26.718218 21.9134047,25.9353958 C21.8638122,25.8286539 21.738956,25.7825177 21.6322334,25.8314126 C21.5266096,25.8798041 21.4808538,26.0037738 21.5306132,26.1113557 C21.9482733,27.0223769 22.8902161,27.6585083 24.0973891,27.848513 L24.5196479,27.9149751 L24.5196479,29.7124502 L24.9410503,29.7124502 L24.9410503,27.9495443 L25.3669624,27.88573 C26.7130536,27.6840455 27.7477007,26.8093088 27.8130303,25.6847069 L27.8132962,25.6804441 C27.8215787,25.5562066 27.8165788,25.4255839 27.7989499,25.2831538 C27.6605175,24.2056537 26.8059684,23.5922912 25.2836311,23.0873208 L24.9410503,22.9736843 L24.9410503,18.7466125 L25.5816856,18.9343849 C26.3556424,19.1612343 26.9902058,19.6190063 27.4053322,20.3638975 C27.462109,20.4648857 27.5910046,20.5011331 27.6918017,20.444929 C27.7940815,20.3876898 27.8303076,20.2598922 27.7733597,20.1585957 C27.2735154,19.2637791 26.4093355,18.6536847 25.3423722,18.4388882 L24.9410503,18.3580958 L24.9410503,16.5 Z" id="Fill" stroke="#278252" fill="#278252"></path>
            </g>
        </g>
    </g>
</svg>