<svg xmlns="http://www.w3.org/2000/svg" xmlns:xlink="http://www.w3.org/1999/xlink" width="24px" height="24px" viewBox="0 0 24 24" version="1.1">
    <!-- Generator: Sketch 49 (51002) - http://www.bohemiancoding.com/sketch -->
    <title>Group 2</title>
    <desc>Created with Sketch.</desc>
    <defs></defs>
    <g id="Icon" stroke="none" stroke-width="1" fill="none" fill-rule="evenodd">
        <g id="Home" transform="translate(-51.000000, -210.000000)" fill="#17A54D">
            <g id="Group-2" transform="translate(51.000000, 210.000000)">
                <g id="atoms/icon/25x25/busqueda">
                    <path d="M12.4078125,17.464375 C6.859375,18.9346875 1.915625,13.9909375 3.3875,8.4425 C4.034375,6.0065625 6.0046875,4.0346875 8.4421875,3.3878125 C13.990625,1.914375 18.9375,6.86125 17.4625,12.41125 C16.815625,14.8471875 14.8453125,16.8175 12.4078125,17.464375 M23.4375,21.2284375 L18.8109375,16.601875 C20.45625,14.3721875 21.25,11.4753125 20.6546875,8.38 C19.8640625,4.2690625 16.546875,0.9534375 12.43125,0.18625 C5.1125,-1.17625 -1.1765625,5.114375 0.1875,12.433125 C0.9546875,16.54875 4.2703125,19.864375 8.38125,20.655 C11.4765625,21.24875 14.371875,20.4565625 16.6015625,18.81125 L21.228125,23.4378125 C21.8375,24.0471875 22.8265625,24.0471875 23.4375,23.4378125 C24.046875,22.826875 24.046875,21.8378125 23.4375,21.2284375" id="Fill1739835617302"></path>
                </g>
            </g>
        </g>
    </g>
</svg>