<?xml version="1.0" encoding="utf-8"?>
<!-- Generator: Adobe Illustrator 24.1.2, SVG Export Plug-In . SVG Version: 6.00 Build 0)  -->
<svg version="1.1" id="Layer_1" xmlns="http://www.w3.org/2000/svg" xmlns:xlink="http://www.w3.org/1999/xlink" x="0px" y="0px"
	 viewBox="0 0 68 69" style="enable-background:new 0 0 68 69;" xml:space="preserve">
<style type="text/css">
	.st0{fill:#17A54D;}
</style>
<g id="XMLID_1_">
	<path id="XMLID_3_" class="st0" d="M34.61,66.39c-5.79,0-11.23-1.48-15.96-4.08L0.38,68.12l5.96-17.57
		c-3-4.94-4.74-10.72-4.74-16.91c0-18.09,14.78-32.75,33.01-32.75c18.23,0,33.01,14.66,33.01,32.75
		C67.62,51.72,52.84,66.39,34.61,66.39z M34.61,7.37c-14.6,0-26.47,11.78-26.47,26.27c0,5.75,1.87,11.07,5.04,15.4l-3.31,9.75
		l10.17-3.23c4.18,2.74,9.19,4.34,14.56,4.34c14.6,0,26.47-11.78,26.47-26.27C61.08,19.15,49.21,7.37,34.61,7.37z M49.15,40.23
		c-0.18-0.29-0.65-0.47-1.35-0.81c-0.7-0.35-4.17-2.04-4.81-2.27c-0.65-0.23-1.12-0.35-1.58,0.35s-1.82,2.27-2.23,2.74
		c-0.41,0.47-0.82,0.53-1.52,0.18c-0.7-0.35-2.97-1.09-5.66-3.47c-2.09-1.85-3.5-4.14-3.91-4.84c-0.41-0.7-0.04-1.08,0.31-1.42
		c0.32-0.31,0.7-0.82,1.06-1.22c0.35-0.41,0.47-0.7,0.7-1.17c0.24-0.47,0.12-0.87-0.06-1.22c-0.18-0.35-1.58-3.79-2.17-5.18
		c-0.59-1.4-1.17-1.16-1.58-1.16c-0.41,0-0.88-0.06-1.35-0.06c-0.47,0-1.23,0.17-1.88,0.87c-0.64,0.7-2.46,2.39-2.46,5.82
		c0,3.44,2.52,6.76,2.87,7.22c0.35,0.47,4.87,7.75,12.02,10.54c7.16,2.8,7.16,1.86,8.45,1.75c1.29-0.12,4.16-1.69,4.75-3.32
		C49.33,41.92,49.33,40.52,49.15,40.23z"/>
</g>
</svg>
