<?xml version="1.0" encoding="utf-8"?>
<!-- Generator: Adobe Illustrator 27.0.0, SVG Export Plug-In . SVG Version: 6.00 Build 0)  -->
<svg version="1.1" id="LogoGS-main" xmlns="http://www.w3.org/2000/svg" xmlns:xlink="http://www.w3.org/1999/xlink" x="0px"
	 y="0px" viewBox="0 0 131.5 61" style="enable-background:new 0 0 131.5 61;" xml:space="preserve">
<style type="text/css">
	.st0{fill:#48494B;}
	.st1{fill:#221F1C;}
	.st2{fill:#FFC900;}
	.st3{fill:#D1D3D5;}
	.st4{fill:#AAADAF;}
	.st5{fill:#86898C;}
	.st6{fill:#67696C;}
	.st7{fill:#A0925A;}
	.st8{stroke:#000000;stroke-width:0.75;}
	.st9{stroke:#000000;stroke-width:0.5;stroke-linecap:square;stroke-linejoin:round;}
</style>
<g id="Grupo_1" transform="translate(35.113 55.987)">
	<path id="Trazado_1" class="st0" d="M-103.6,0.1c1.1-0.1,2.1,0.6,2.2,1.7c0,0.3,0,0.5,0,0.8c-0.2,1.4-1.4,2.5-2.9,2.4h-1.7l0.8-4.8
		L-103.6,0.1z M-103.6,0.8h-0.9l-0.5,3.4h0.9c1,0.1,1.9-0.7,2-1.7C-102,1.4-102.5,0.8-103.6,0.8z"/>
	<path id="Trazado_2" class="st0" d="M-95.7,0.1l-0.1,0.7h-2.5l-0.2,1.3h2.3l-0.1,0.7h-2.3l-0.2,1.4h2.6l-0.1,0.7h-3.4l0.8-4.8
		L-95.7,0.1z"/>
	<path id="Trazado_3" class="st0" d="M-92.3,0c0.5,0,1,0.1,1.5,0.4l-0.1,0.7c-0.4-0.3-0.9-0.4-1.3-0.4c-0.6,0-1,0.2-1.1,0.6
		c-0.2,1,2.6,0.7,2.3,2.4C-91.2,4.7-92.1,5-93,5c-0.6,0-1.2-0.1-1.7-0.4l0.1-0.7c0.5,0.3,1,0.5,1.6,0.5c0.6,0,1.1-0.1,1.2-0.6
		c0.2-1.1-2.6-0.8-2.3-2.4C-93.9,0.4-93.1-0.1-92.3,0z"/>
	<path id="Trazado_4" class="st0" d="M-86.9,0.1c1.1-0.1,2.1,0.6,2.2,1.7c0,0.3,0,0.5,0,0.8C-84.9,4-86.2,5-87.6,4.9h-1.7l0.8-4.8
		L-86.9,0.1z M-87,0.8h-0.9l-0.5,3.4h0.9c1,0.1,1.9-0.7,2-1.7C-85.4,1.4-85.8,0.8-87,0.8z"/>
	<path id="Trazado_5" class="st0" d="M-79.1,0.1l-0.1,0.7h-2.5l-0.2,1.3h2.3l-0.1,0.7h-2.3l-0.2,1.4h2.6l-0.1,0.7h-3.4l0.8-4.8
		L-79.1,0.1z"/>
	<path id="Trazado_6" class="st0" d="M-72.9,0.2l-0.6,4h0.8l-0.1,0.7h-2.5l0.1-0.7h0.9l0.5-3.2l-1,0.4l0.1-0.7l1.2-0.4L-72.9,0.2z"
		/>
	<path id="Trazado_7" class="st0" d="M-68.9,0.1c1.3,0,1.9,0.9,1.7,2.4c0,1.4-1.2,2.4-2.5,2.4c-0.4,0-0.8-0.1-1.2-0.3l0.1-0.7
		c0.3,0.2,0.7,0.3,1.1,0.3c0.9,0,1.6-0.6,1.7-1.5c-0.4,0.2-0.9,0.4-1.4,0.4c-0.7,0.1-1.4-0.5-1.4-1.2c0-0.1,0-0.2,0-0.4
		C-70.7,0.7-69.8,0.1-68.9,0.1z M-70,1.7c-0.1,0.6,0.4,0.8,0.9,0.8c0.4,0,0.9-0.2,1.2-0.4c0.1-0.9-0.3-1.3-1-1.3
		C-69.4,0.8-69.9,1.1-70,1.7L-70,1.7z"/>
	<path id="Trazado_8" class="st0" d="M-63,0.1c1.4,0,2,1.1,1.7,2.5C-61.3,3.9-62.4,5-63.7,5c-1.4,0-2-1.1-1.7-2.5
		C-65.4,1.2-64.3,0.2-63,0.1z M-63.1,0.9c-0.9,0-1.4,0.6-1.6,1.7c-0.2,1.1,0.1,1.7,1,1.7c0.9,0,1.5-0.6,1.6-1.7
		C-61.9,1.5-62.2,0.9-63.1,0.9L-63.1,0.9z"/>
	<path id="Trazado_9" class="st0" d="M-57.4,1.9c0.7-0.1,1.4,0.5,1.4,1.2c0,0.1,0,0.2,0,0.3c-0.2,0.9-1,1.6-1.9,1.5
		c-1.4,0-1.9-0.9-1.7-2.4c0.1-1.4,1.2-2.5,2.6-2.4c0.4,0,0.7,0.1,1.1,0.3L-56,1.1c-0.3-0.2-0.7-0.3-1-0.3c-0.9,0-1.6,0.6-1.7,1.5
		C-58.4,2.1-57.9,1.9-57.4,1.9z M-56.8,3.4c0.1-0.6-0.4-0.8-0.9-0.8c-0.4,0-0.9,0.2-1.2,0.4C-59,4-58.6,4.3-58,4.3
		C-57.4,4.4-56.9,4-56.8,3.4L-56.8,3.4z"/>
</g>
<g id="Grupo_2" transform="translate(2.376 29.816)">
	<path id="Trazado_10" class="st0" d="M-101.3,0c0.8,0,1.6,0.2,2.3,0.5l-0.2,1.2c-1.7-1.1-4-0.5-5,1.2c-0.2,0.3-0.3,0.7-0.4,1
		c-0.3,1.2,0.4,2.4,1.6,2.8c0.3,0.1,0.6,0.1,0.9,0.1c0.4,0,0.8-0.1,1.2-0.2l0.5-2.9h1.2l-0.6,3.7c-0.8,0.3-1.6,0.5-2.5,0.5
		c-2,0-4-1.2-3.6-4.1C-105.6,1.5-103.6-0.1-101.3,0z"/>
	<path id="Trazado_11" class="st0" d="M-98.8,7.8l1.2-7.6h3c1.4,0,2.9,0.6,2.6,2.5c-0.2,1.1-1.1,2-2.2,2.2l1.9,3h-1.4l-1.8-2.9h-1.6
		l-0.5,2.9H-98.8z M-96.9,3.8h1.8c0.9,0.1,1.7-0.5,1.8-1.3c0.2-1-0.6-1.2-1.4-1.2h-1.9L-96.9,3.8z"/>
	<path id="Trazado_12" class="st0" d="M-84.3,0.1L-85.1,5c-0.2,1.8-1.8,3.1-3.6,2.9c-1.7,0-3.2-0.8-2.9-3l0.8-4.8h1.2l-0.8,4.8
		c-0.2,1.4,0.5,1.8,1.7,1.8c1.2,0.1,2.2-0.7,2.4-1.8c0,0,0-0.1,0-0.1l0.7-4.7L-84.3,0.1z"/>
	<path id="Trazado_13" class="st0" d="M-80.2,0.1c1.6,0,3.1,0.6,2.8,2.6c-0.3,1.9-1.8,2.4-3.6,2.4h-1.5L-83,7.8h-1.2l1.2-7.6H-80.2z
		 M-80.3,1.3h-1.6L-82.4,4h1.5c1.1,0,2-0.3,2.2-1.4S-79.4,1.3-80.3,1.3L-80.3,1.3z"/>
	<path id="Trazado_14" class="st0" d="M-73.4,7.9c-1.8,0.1-3.4-1.3-3.5-3.1c0-0.3,0-0.6,0.1-0.9c0.3-2.3,2.3-3.9,4.6-3.9
		c1.8-0.1,3.4,1.3,3.5,3.2c0,0.3,0,0.6-0.1,0.9C-69.2,6.3-71.1,8-73.4,7.9z M-73.4,6.7c1.6,0,3.1-1.2,3.3-2.8
		c0.3-1.2-0.4-2.4-1.6-2.7c-0.2-0.1-0.5-0.1-0.7-0.1c-1.6,0-3,1.2-3.2,2.8c-0.3,1.2,0.4,2.4,1.6,2.7C-73.8,6.7-73.6,6.7-73.4,6.7z"
		/>
</g>
<g id="Grupo_3" transform="translate(0 40.481)">
	<path id="Trazado_15" class="st1" d="M-99.7,0c1.4,0,2.8,0.3,4.1,1l-0.4,2.9c-1-0.7-2.3-1.1-3.5-1.1c-1.3,0-1.8,0.4-1.9,0.9
		c-0.1,1.6,6.2,1.3,5.5,5.6c-0.5,2.8-2.7,3.6-5.3,3.6c-1.6,0-3.2-0.4-4.6-1.2l0.5-3c1.2,0.9,2.6,1.4,4.1,1.3c1.3,0,2-0.3,2.1-0.8
		c0.3-2-6.1-1.4-5.4-5.8C-104.4,1.1-102.1,0-99.7,0z"/>
	<path id="Trazado_16" class="st1" d="M-87,12.6l-0.4-1.9h-5.1l-1,1.9h-3.4l6.8-12.3h3.5l2.9,12.3H-87z M-91.1,8h3.2l-0.7-3.4
		c-0.1-0.4-0.1-0.9-0.1-1.4c-0.1,0.5-0.3,0.9-0.5,1.3L-91.1,8z"/>
	<path id="Trazado_17" class="st1" d="M-79.1,0.3l-1.5,9.4h5.6l-0.5,2.9h-8.9l2-12.3L-79.1,0.3z"/>
	<path id="Trazado_18" class="st1" d="M-69.3,0.3l-2,12.3h-3.3l2-12.3H-69.3z"/>
	<path id="Trazado_19" class="st1" d="M-70,12.6l2-12.3h2.7l4.1,7c0-0.7,0.1-1.3,0.2-2l0.8-5h3.3l-2,12.3h-2.7l-4.1-7
		c0,0.6-0.1,1.2-0.2,1.8l-0.8,5.2H-70z"/>
	<path id="Trazado_20" class="st1" d="M-49.6,12.6l-0.4-1.9h-5.1l-1,1.9h-3.4l6.8-12.3h3.5l2.9,12.3H-49.6z M-53.7,8h3.2l-0.7-3.4
		c-0.1-0.4-0.1-0.9-0.1-1.4c-0.1,0.5-0.3,0.9-0.5,1.3L-53.7,8z"/>
	<path id="Trazado_21" class="st1" d="M-40,0c1.4,0,2.8,0.3,4.1,1l-0.4,2.9c-1-0.7-2.3-1.1-3.5-1.1c-1.3,0-1.8,0.4-1.9,0.9
		c-0.1,1.6,6.2,1.3,5.5,5.6c-0.5,2.8-2.7,3.6-5.3,3.6c-1.6,0-3.2-0.4-4.6-1.2l0.5-3c1.2,0.9,2.6,1.4,4.1,1.3c1.3,0,2-0.3,2.1-0.8
		c0.3-2-6.1-1.4-5.4-5.8C-44.7,1.1-42.4,0-40,0z"/>
</g>
<path id="Trazado_22" class="st2" d="M-22.2,28.3c0,6.6-2.9,12.9-8,17.2c-0.5,0.4-0.4,0.9,0,1.1c0.5,0.2,1-0.3,1.3-0.6
	c10.9-9.7,11.8-26.4,2.1-37.2C-36.5-2-53.2-3-64,6.7c-2.8,2.5-5.1,5.6-6.6,9.1c-1.1,2.9,0.3,6.1,3.2,7.2c0.6,0.2,1.2,0.4,1.9,0.4
	c0.7-1.7,4.1-17.8,21.2-17.3C-32.2,6.3-22.2,16-22.2,28.3"/>
<path id="Trazado_23" class="st0" d="M-58.8,20.2c0-1.7,1.4-3,3-3s3,1.4,3,3c0,1.7-1.4,3-3,3c0,0,0,0,0,0
	C-57.5,23.2-58.8,21.9-58.8,20.2"/>
<path id="Trazado_24" class="st3" d="M-62.7,33.5c4.8,3.6,10.6,5.5,16.6,5.5c6.2,0.1,12.2-1.9,17.1-5.7c0,0,1.1-0.7,0.2-1.5
	c-0.6-0.5-1.5,0.1-2,0.4c-4.5,3.1-9.7,4.9-15.2,5.1c-5.9,0.2-11.8-1.5-16.7-4.8c0,0-0.5-0.4-0.6,0.1C-63.4,33-62.7,33.5-62.7,33.5"
	/>
<path id="Trazado_25" class="st4" d="M-34.9,30.3c-3.3,1.9-6.9,3.1-10.6,3.6c-5.9,0.7-12-0.5-17.2-3.4c0,0-0.5-0.4-0.6,0.2
	c-0.1,0.4,0.7,0.8,0.7,0.8c5.1,3.2,11.1,4.6,17.1,4.1c4.3-0.4,8.5-1.7,12.2-4c0.5-0.2,0.9-0.5,1.3-0.8c0.4-0.3,0.4-0.9,0.1-1.3
	c0-0.1-0.1-0.1-0.2-0.2c-0.6-0.4-1-0.1-1.4,0.1C-33.6,29.5-34.1,29.9-34.9,30.3"/>
<path id="Trazado_26" class="st5" d="M-38.1,27.8c-2.3,1.2-4.7,2.1-7.3,2.6c-5.8,1.2-11.9,0.6-17.3-1.9c0,0-0.6-0.3-0.6,0.2
	c0,0.4,0.7,0.8,0.7,0.8c8.3,4.2,18,4,26.2-0.4c0,0,0.7-0.4,1.2-0.7c0.5-0.3,0.7-0.9,0-1.5c-0.6-0.4-1.2,0-1.6,0.2
	C-37,27.2-37.7,27.6-38.1,27.8"/>
<path id="Trazado_27" class="st6" d="M-41.5,25.4c-6.6,3.3-14.3,3.7-21.3,1.3c0,0-0.6-0.3-0.6,0.3c0,0.4,0.8,0.7,0.8,0.7
	c5.5,2.2,11.6,2.5,17.3,1c1.9-0.5,3.7-1.2,5.4-2.1c0,0,0.6-0.3,1.1-0.6c0.4-0.2,0.6-0.7,0.4-1.1c-0.1-0.1-0.2-0.2-0.3-0.3
	c-0.4-0.2-1-0.2-1.4,0C-40.2,24.7-41,25.1-41.5,25.4"/>
<path id="Trazado_28" class="st0" d="M-46.1,23.5c-5.3,2.3-11.2,2.7-16.7,1.2c0,0-0.6-0.2-0.6,0.3c0,0.4,0.9,0.6,0.9,0.6
	c5.5,1.7,11.5,1.5,16.9-0.6c0.9-0.3,1.7-0.6,2.5-1c1.2-0.6,0.8-0.4,1-0.5c0.4-0.2,0.6-0.6,0.4-1c-0.1-0.2-0.2-0.3-0.3-0.4
	c-0.6-0.5-1.5,0.1-1.8,0.2C-44.5,22.9-45.5,23.3-46.1,23.5"/>
<g>
	<path d="M31.8,40.1c0,0,0,0,7.2,1c-4.2,2.7-13.2,6.4-20.3,3.9C11,42.3,10.8,33.1,18,22.6C25.1,12,40.9,7,48.6,7.3
		c7.7,0.3,17,1.9,17.4,14.4c0,0,2.7-17.3-20.1-17.2C22.2,4.6-1.4,28.2,4.3,42.7c4.7,11.9,31,9.2,43.5-7.1L31.8,40.1z"/>
	<path class="st7" d="M35.3,20.1c0,0,0,0-7.2-1c4.2-2.7,13.2-6.4,20.3-3.9c7.8,2.7,7.9,11.9,0.8,22.4C42,48.1,26.2,53.1,18.5,52.8
		c-7.7-0.3-17-1.9-17.4-14.4c0,0-2.7,17.3,20.1,17.2C45,55.6,68.5,31.9,62.9,17.5c-4.7-11.9-31-9.2-43.5,7.1L35.3,20.1z"/>
	<g>
		<path class="st8" d="M23.5,25.8h4.6l-0.2,1.5H25l-0.3,1.9h2.7l-0.2,1.5h-2.7l-0.3,2.1H27l-0.2,1.5h-4.5L23.5,25.8z"/>
		<path class="st8" d="M35.2,26.7L34.3,28c-0.3-0.2-0.6-0.4-0.8-0.5c-0.2-0.1-0.4-0.2-0.6-0.2c-0.3,0-0.6,0.1-0.8,0.3
			c-0.2,0.2-0.3,0.4-0.3,0.7c0,0.3,0.1,0.5,0.3,0.7c0.2,0.2,0.6,0.4,1.1,0.6c0.4,0.3,0.7,0.5,0.9,0.6c0.2,0.1,0.3,0.4,0.4,0.6
			c0.1,0.3,0.2,0.6,0.2,0.9c0,0.7-0.3,1.4-0.8,1.9c-0.5,0.5-1.2,0.8-2,0.8c-0.9,0-1.8-0.4-2.7-1.1l1-1.2c0.2,0.2,0.5,0.3,0.8,0.5
			c0.3,0.2,0.6,0.3,0.9,0.3c0.3,0,0.6-0.1,0.8-0.3c0.2-0.2,0.3-0.4,0.3-0.7c0-0.3-0.1-0.5-0.3-0.7c-0.2-0.2-0.5-0.4-1-0.6
			c-0.4-0.2-0.7-0.3-0.9-0.5c-0.2-0.1-0.4-0.4-0.5-0.7c-0.2-0.3-0.3-0.7-0.3-1.1c0-0.8,0.3-1.4,0.8-1.9c0.5-0.5,1.2-0.7,2.1-0.7
			C33.7,25.7,34.5,26.1,35.2,26.7z"/>
		<path class="st8" d="M38.3,25.8h1.6c1.1,0,1.9,0.2,2.4,0.7c0.6,0.4,0.8,1.1,0.8,1.9c0,0.6-0.2,1.2-0.5,1.7c-0.3,0.5-0.8,0.8-1.5,1
			l1.6,3.2h-1.8l-1.6-3.1h-0.3l-0.5,3.1h-1.8L38.3,25.8z M39.9,27.3l-0.4,2.4l0.4,0c0.4,0,0.8-0.1,1.1-0.4c0.3-0.2,0.5-0.5,0.5-0.9
			c0-0.4-0.1-0.7-0.4-0.9C40.8,27.4,40.4,27.3,39.9,27.3z"/>
	</g>
</g>
<g>
	<g>
		<path class="st9" d="M69.1,16.7H73l-0.2,1.2h-2.4l-0.2,1.6h2.2l-0.2,1.3H70l-0.3,1.7H72l-0.2,1.2h-3.8L69.1,16.7z"/>
		<path d="M74.7,16.7H76l0.7,4l2-4h1.4v7h-1.3v-4.2l-2.1,4.2H76l-0.8-4.4l-1.5,4.4h-1.4L74.7,16.7z"/>
		<path d="M81.8,16.7h1.5c1.8,0,2.6,0.7,2.6,2.2c0,0.4-0.1,0.8-0.3,1.1c-0.2,0.3-0.4,0.6-0.7,0.8c-0.3,0.2-0.5,0.3-0.8,0.3
			c-0.3,0-0.8,0.1-1.5,0.1l-0.4,2.6h-1.5L81.8,16.7z M83.1,17.9l-0.3,2h0.4c0.3,0,0.6-0.1,0.9-0.3c0.2-0.2,0.4-0.5,0.4-0.8
			c0-0.3-0.1-0.5-0.3-0.6c-0.2-0.2-0.4-0.3-0.7-0.3H83.1z"/>
		<path d="M87.3,16.7h1.3c0.9,0,1.6,0.2,2,0.5c0.5,0.4,0.7,0.9,0.7,1.6c0,0.5-0.1,1-0.4,1.4c-0.3,0.4-0.7,0.7-1.3,0.8l1.4,2.7h-1.5
			l-1.3-2.5h-0.2l-0.4,2.5h-1.5L87.3,16.7z M88.6,17.9l-0.3,2l0.3,0c0.4,0,0.7-0.1,0.9-0.3c0.3-0.2,0.4-0.5,0.4-0.7
			c0-0.3-0.1-0.6-0.3-0.7C89.4,18,89.1,17.9,88.6,17.9z"/>
		<path d="M93.1,16.7h3.8l-0.2,1.2h-2.4l-0.2,1.6h2.2l-0.2,1.3h-2.2l-0.3,1.7h2.3l-0.2,1.2H92L93.1,16.7z"/>
		<path d="M101.4,17.4l-0.8,1c-0.3-0.2-0.5-0.3-0.7-0.4c-0.2-0.1-0.4-0.1-0.5-0.1c-0.3,0-0.5,0.1-0.7,0.2c-0.2,0.2-0.3,0.4-0.3,0.6
			c0,0.2,0.1,0.4,0.3,0.6c0.2,0.2,0.5,0.3,0.9,0.5c0.4,0.2,0.6,0.4,0.7,0.5c0.1,0.1,0.3,0.3,0.4,0.5c0.1,0.2,0.2,0.5,0.2,0.8
			c0,0.6-0.2,1.1-0.7,1.6c-0.5,0.4-1,0.6-1.7,0.6c-0.8,0-1.5-0.3-2.2-0.9l0.8-1c0.2,0.1,0.4,0.3,0.6,0.4c0.2,0.2,0.5,0.2,0.7,0.2
			c0.3,0,0.5-0.1,0.7-0.3c0.2-0.2,0.3-0.4,0.3-0.6c0-0.2-0.1-0.4-0.3-0.6c-0.2-0.2-0.5-0.3-0.8-0.5c-0.4-0.2-0.6-0.3-0.8-0.4
			c-0.2-0.1-0.3-0.3-0.5-0.5c-0.2-0.2-0.2-0.6-0.2-0.9c0-0.6,0.2-1.1,0.7-1.6c0.5-0.4,1-0.6,1.7-0.6
			C100.1,16.6,100.8,16.8,101.4,17.4z"/>
		<path d="M104.9,16.7h1l1.8,7h-1.4l-0.4-1.4h-2.6l-0.8,1.4h-1.5L104.9,16.7z M105.1,19l-1.1,2.1h1.6L105.1,19z"/>
	</g>
	<g>
		<path class="st9" d="M69.1,36.4h1.3c0.9,0,1.6,0.2,2,0.5c0.5,0.4,0.7,0.9,0.7,1.6c0,0.5-0.1,1-0.4,1.4c-0.3,0.4-0.7,0.7-1.3,0.8
			l1.4,2.7h-1.5l-1.3-2.5h-0.2l-0.4,2.5h-1.5L69.1,36.4z M70.4,37.7l-0.3,2l0.3,0c0.4,0,0.7-0.1,0.9-0.3c0.3-0.2,0.4-0.5,0.4-0.7
			c0-0.3-0.1-0.6-0.3-0.7C71.2,37.8,70.8,37.7,70.4,37.7z"/>
		<path d="M74.8,36.4h3.8l-0.2,1.2h-2.4l-0.2,1.6h2.2l-0.2,1.3h-2.2l-0.3,1.7h2.3l-0.2,1.3h-3.8L74.8,36.4z"/>
		<path d="M83.2,37.2l-0.8,1c-0.3-0.2-0.5-0.3-0.7-0.4c-0.2-0.1-0.4-0.1-0.5-0.1c-0.3,0-0.5,0.1-0.7,0.2c-0.2,0.2-0.3,0.4-0.3,0.6
			c0,0.2,0.1,0.4,0.3,0.6c0.2,0.2,0.5,0.3,0.9,0.5c0.4,0.2,0.6,0.4,0.7,0.5c0.1,0.1,0.3,0.3,0.4,0.5c0.1,0.2,0.2,0.5,0.2,0.8
			c0,0.6-0.2,1.1-0.7,1.6c-0.5,0.4-1,0.6-1.7,0.6c-0.8,0-1.5-0.3-2.2-0.9l0.8-1c0.2,0.1,0.4,0.3,0.6,0.4c0.2,0.2,0.5,0.2,0.7,0.2
			c0.3,0,0.5-0.1,0.7-0.3c0.2-0.2,0.3-0.4,0.3-0.6c0-0.2-0.1-0.4-0.3-0.6c-0.2-0.2-0.5-0.3-0.8-0.5c-0.4-0.2-0.6-0.3-0.8-0.4
			c-0.2-0.1-0.3-0.3-0.5-0.5c-0.2-0.2-0.2-0.6-0.2-0.9c0-0.6,0.2-1.1,0.7-1.6c0.5-0.4,1-0.6,1.7-0.6C81.9,36.3,82.5,36.6,83.2,37.2z
			"/>
		<path d="M84.1,36.4h1.5c1.8,0,2.6,0.7,2.6,2.2c0,0.4-0.1,0.8-0.3,1.1c-0.2,0.3-0.4,0.6-0.7,0.8c-0.3,0.2-0.5,0.3-0.8,0.3
			c-0.3,0-0.8,0.1-1.5,0.1l-0.4,2.6H83L84.1,36.4z M85.4,37.7l-0.3,2h0.4c0.3,0,0.6-0.1,0.9-0.3c0.2-0.2,0.4-0.5,0.4-0.8
			c0-0.3-0.1-0.5-0.3-0.6c-0.2-0.2-0.4-0.3-0.7-0.3H85.4z"/>
		<path d="M92.7,36.3c1.1,0,1.9,0.3,2.5,0.9c0.6,0.6,0.9,1.5,0.9,2.6c0,1.1-0.4,2-1.1,2.7c-0.7,0.7-1.7,1-2.8,1
			c-1,0-1.8-0.3-2.4-0.9c-0.6-0.6-0.9-1.5-0.9-2.5c0-1.1,0.4-2,1.1-2.7C90.6,36.7,91.5,36.3,92.7,36.3z M94.6,39.8
			c0-0.7-0.2-1.2-0.6-1.6c-0.4-0.4-0.9-0.6-1.5-0.6c-0.6,0-1.2,0.2-1.6,0.7c-0.5,0.5-0.7,1.1-0.7,1.8c0,0.7,0.2,1.2,0.6,1.6
			c0.4,0.4,0.9,0.6,1.4,0.6c0.6,0,1.2-0.2,1.6-0.7C94.3,41.1,94.6,40.5,94.6,39.8z"/>
		<path d="M97.6,36.4h1.5l2.3,4.7l0.7-4.7h1.4l-1,7h-1.4l-2.4-4.9L98,43.5h-1.5L97.6,36.4z"/>
		<path d="M108.2,37.2l-0.8,1c-0.3-0.2-0.5-0.3-0.7-0.4c-0.2-0.1-0.4-0.1-0.5-0.1c-0.3,0-0.5,0.1-0.7,0.2c-0.2,0.2-0.3,0.4-0.3,0.6
			c0,0.2,0.1,0.4,0.3,0.6c0.2,0.2,0.5,0.3,0.9,0.5c0.4,0.2,0.6,0.4,0.7,0.5c0.1,0.1,0.3,0.3,0.4,0.5c0.1,0.2,0.2,0.5,0.2,0.8
			c0,0.6-0.2,1.1-0.7,1.6c-0.5,0.4-1,0.6-1.7,0.6c-0.8,0-1.5-0.3-2.2-0.9l0.8-1c0.2,0.1,0.4,0.3,0.6,0.4c0.2,0.2,0.5,0.2,0.7,0.2
			c0.3,0,0.5-0.1,0.7-0.3c0.2-0.2,0.3-0.4,0.3-0.6c0-0.2-0.1-0.4-0.3-0.6c-0.2-0.2-0.5-0.3-0.8-0.5c-0.4-0.2-0.6-0.3-0.8-0.4
			c-0.2-0.1-0.3-0.3-0.5-0.5c-0.2-0.2-0.2-0.6-0.2-0.9c0-0.6,0.2-1.1,0.7-1.6c0.5-0.4,1-0.6,1.7-0.6
			C106.9,36.3,107.6,36.6,108.2,37.2z"/>
		<path d="M111.7,36.4h1l1.8,7h-1.4l-0.4-1.4h-2.6l-0.8,1.4h-1.5L111.7,36.4z M112,38.8l-1.1,2.1h1.6L112,38.8z"/>
		<path d="M116.3,36.4h1.7c1.6,0,2.4,0.6,2.4,1.8c0,0.7-0.3,1.2-1,1.6c0.7,0.3,1.1,0.9,1.1,1.6c0,0.6-0.3,1.1-0.8,1.5
			c-0.5,0.4-1.3,0.5-2.2,0.5h-2.2L116.3,36.4z M117.1,40.4l-0.3,1.9h0.7c0.4,0,0.8-0.1,1-0.3c0.3-0.2,0.4-0.4,0.4-0.7
			c0-0.3-0.1-0.5-0.4-0.7c-0.2-0.2-0.6-0.3-0.9-0.3H117.1z M117.5,37.6l-0.3,1.7h0.5c0.3,0,0.6-0.1,0.9-0.2c0.2-0.2,0.3-0.4,0.3-0.6
			c0-0.3-0.1-0.5-0.3-0.6c-0.2-0.2-0.5-0.2-0.8-0.2H117.5z"/>
		<path d="M122.1,36.4h1.4l-0.8,5.8h2.3l-0.2,1.3H121L122.1,36.4z"/>
		<path d="M126.8,36.4h3.8l-0.2,1.2h-2.4l-0.2,1.6h2.2l-0.2,1.3h-2.2l-0.3,1.7h2.3l-0.2,1.3h-3.8L126.8,36.4z"/>
	</g>
	<g>
		<path class="st9" d="M73,27.1l-0.8,1c-0.3-0.2-0.5-0.3-0.7-0.4c-0.2-0.1-0.4-0.1-0.5-0.1c-0.3,0-0.5,0.1-0.7,0.2
			c-0.2,0.2-0.3,0.4-0.3,0.6c0,0.2,0.1,0.4,0.3,0.6c0.2,0.2,0.5,0.3,0.9,0.5c0.4,0.2,0.6,0.4,0.7,0.5c0.1,0.1,0.3,0.3,0.4,0.5
			c0.1,0.2,0.2,0.5,0.2,0.8c0,0.6-0.2,1.1-0.7,1.6c-0.5,0.4-1,0.6-1.7,0.6c-0.8,0-1.5-0.3-2.2-0.9l0.8-1c0.2,0.1,0.4,0.3,0.6,0.4
			c0.2,0.2,0.5,0.2,0.7,0.2c0.3,0,0.5-0.1,0.7-0.3c0.2-0.2,0.3-0.4,0.3-0.6c0-0.2-0.1-0.4-0.3-0.6c-0.2-0.2-0.5-0.3-0.8-0.5
			c-0.4-0.2-0.6-0.3-0.8-0.4s-0.3-0.3-0.5-0.5c-0.2-0.2-0.2-0.6-0.2-0.9c0-0.6,0.2-1.1,0.7-1.6c0.5-0.4,1-0.6,1.7-0.6
			C71.8,26.3,72.4,26.6,73,27.1z"/>
		<path d="M77.3,26.3c1.1,0,1.9,0.3,2.5,0.9c0.6,0.6,0.9,1.5,0.9,2.6c0,1.1-0.4,2-1.1,2.7c-0.7,0.7-1.7,1-2.8,1
			c-1,0-1.8-0.3-2.4-0.9c-0.6-0.6-0.9-1.5-0.9-2.5c0-1.1,0.4-2,1.1-2.7C75.2,26.6,76.2,26.3,77.3,26.3z M79.2,29.8
			c0-0.7-0.2-1.2-0.6-1.6c-0.4-0.4-0.9-0.6-1.5-0.6c-0.6,0-1.2,0.2-1.6,0.7c-0.5,0.5-0.7,1.1-0.7,1.8c0,0.7,0.2,1.2,0.6,1.6
			c0.4,0.4,0.9,0.6,1.4,0.6c0.6,0,1.2-0.2,1.6-0.7C79,31,79.2,30.4,79.2,29.8z"/>
		<path d="M87.4,26.9l-0.2,1.3c-0.5-0.4-1-0.6-1.6-0.6c-0.7,0-1.3,0.3-1.8,0.8c-0.5,0.5-0.8,1.1-0.8,1.8c0,0.6,0.2,1.1,0.6,1.5
			c0.4,0.4,0.9,0.6,1.5,0.6c0.6,0,1.1-0.2,1.8-0.5l-0.2,1.4c-0.6,0.3-1.2,0.5-1.8,0.5c-1,0-1.9-0.3-2.5-1c-0.6-0.7-0.9-1.4-0.9-2.3
			c0-1.2,0.4-2.2,1.2-2.9c0.8-0.7,1.7-1.1,2.6-1.1C86.1,26.3,86.8,26.5,87.4,26.9z"/>
		<path d="M88.4,26.4h1.4l-1,7h-1.5L88.4,26.4z"/>
		<path d="M93.4,26.4h1l1.8,7h-1.4L94.5,32h-2.6l-0.8,1.4h-1.5L93.4,26.4z M93.6,28.7l-1.1,2.1h1.6L93.6,28.7z"/>
		<path d="M97.9,26.4h1.4l-0.8,5.8h2.3l-0.2,1.3h-3.8L97.9,26.4z"/>
		<path d="M103.5,26.4h1.3l0.7,4l2-4h1.4v7h-1.3v-4.2l-2.1,4.2h-0.7L104,29l-1.5,4.4h-1.4L103.5,26.4z"/>
		<path d="M110.7,26.4h3.8l-0.2,1.2H112l-0.2,1.6h2.2l-0.2,1.3h-2.2l-0.3,1.7h2.3l-0.2,1.3h-3.8L110.7,26.4z"/>
		<path d="M115.4,26.4h1.5l2.3,4.7l0.7-4.7h1.4l-1,7h-1.4l-2.4-4.9l-0.7,4.9h-1.5L115.4,26.4z"/>
		<path d="M122,26.4h4.3l-0.2,1.2h-1.4l-0.8,5.8h-1.4l0.8-5.8h-1.4L122,26.4z"/>
		<path d="M127.1,26.4h3.8l-0.2,1.2h-2.4l-0.2,1.6h2.2l-0.2,1.3h-2.2l-0.3,1.7h2.3l-0.2,1.3H126L127.1,26.4z"/>
	</g>
</g>
</svg>
