<svg id="LogoGS-main" xmlns="http://www.w3.org/2000/svg" width="86.001" height="60.988" viewBox="0 0 86.001 60.988">
  <g id="Grupo_1" data-name="Grupo 1" transform="translate(35.113 55.987)">
    <path id="Trazado_1" data-name="Trazado 1" d="M353.762,448.128a1.97,1.97,0,0,1,2.17,2.459,2.661,2.661,0,0,1-2.88,2.363H351.33l.765-4.822Zm-.076.716h-.916l-.537,3.389h.882a1.9,1.9,0,0,0,2.025-1.743C355.312,449.43,354.823,448.844,353.686,448.844Z" transform="translate(-351.33 -448.038)" fill="#48494b"/>
    <path id="Trazado_2" data-name="Trazado 2" d="M389.463,448.128l-.117.716h-2.535l-.207,1.316h2.328l-.11.716h-2.328l-.213,1.357h2.57l-.11.716h-3.362l.765-4.822Z" transform="translate(-379.205 -448.038)" fill="#48494b"/>
    <path id="Trazado_3" data-name="Trazado 3" d="M416.185,447.634a2.687,2.687,0,0,1,1.46.4l-.11.723a2.149,2.149,0,0,0-1.336-.406c-.6,0-1.026.165-1.088.592-.152,1.013,2.624.709,2.349,2.4-.159.992-1.054,1.288-1.949,1.288a3.339,3.339,0,0,1-1.708-.434l.117-.737a2.762,2.762,0,0,0,1.578.455c.627,0,1.1-.145,1.164-.6.179-1.109-2.6-.779-2.342-2.439A1.709,1.709,0,0,1,416.185,447.634Z" transform="translate(-402.475 -447.634)" fill="#48494b"/>
    <path id="Trazado_4" data-name="Trazado 4" d="M445.645,448.128a1.97,1.97,0,0,1,2.17,2.459,2.661,2.661,0,0,1-2.879,2.363h-1.722l.765-4.822Zm-.076.716h-.916l-.537,3.389H445a1.9,1.9,0,0,0,2.025-1.743C447.195,449.43,446.706,448.844,445.569,448.844Z" transform="translate(-426.554 -448.038)" fill="#48494b"/>
    <path id="Trazado_5" data-name="Trazado 5" d="M481.346,448.128l-.117.716h-2.535l-.207,1.316h2.328l-.11.716h-2.328l-.214,1.357h2.569l-.11.716h-3.362l.765-4.822Z" transform="translate(-454.429 -448.038)" fill="#48494b"/>
    <path id="Trazado_6" data-name="Trazado 6" d="M522.933,448.888l-.634,3.975h.834l-.117.71h-2.549l.117-.71h.937l.5-3.169-.992.351.117-.723,1.206-.434Z" transform="translate(-489.801 -448.661)" fill="#48494b"/>
    <path id="Trazado_7" data-name="Trazado 7" d="M547,448.394c1.35,0,1.929.937,1.688,2.439a2.513,2.513,0,0,1-2.521,2.425,2.55,2.55,0,0,1-1.185-.282l.1-.689a2.043,2.043,0,0,0,1.054.275,1.7,1.7,0,0,0,1.715-1.46,2.814,2.814,0,0,1-1.364.351,1.321,1.321,0,0,1-1.433-1.536A1.84,1.84,0,0,1,547,448.394Zm-1.157,1.55c-.1.634.358.827.889.827a2.188,2.188,0,0,0,1.24-.413c.055-.93-.338-1.281-.985-1.281A1.038,1.038,0,0,0,545.838,449.944Z" transform="translate(-509.868 -448.256)" fill="#48494b"/>
    <path id="Trazado_8" data-name="Trazado 8" d="M577.224,448.394c1.405,0,1.963,1.088,1.743,2.48a2.479,2.479,0,0,1-2.445,2.383c-1.4,0-1.956-1.088-1.736-2.48A2.473,2.473,0,0,1,577.224,448.394Zm-.041.716c-.916,0-1.447.606-1.626,1.715-.165,1.068.131,1.715,1.006,1.715.923,0,1.454-.606,1.633-1.715C578.361,449.758,578.064,449.11,577.183,449.11Z" transform="translate(-534.233 -448.256)" fill="#48494b"/>
    <path id="Trazado_9" data-name="Trazado 9" d="M609.008,450.192a1.326,1.326,0,0,1,1.412,1.543,1.828,1.828,0,0,1-1.936,1.522c-1.357,0-1.936-.937-1.695-2.439a2.533,2.533,0,0,1,3.706-2.135l-.11.682a2.028,2.028,0,0,0-1.047-.275,1.717,1.717,0,0,0-1.708,1.46A2.783,2.783,0,0,1,609.008,450.192Zm.627,1.5c.1-.613-.351-.813-.882-.813a2.207,2.207,0,0,0-1.247.413c-.062.93.324,1.288.964,1.288A1.049,1.049,0,0,0,609.634,451.694Z" transform="translate(-560.429 -448.256)" fill="#48494b"/>
  </g>
  <g id="Grupo_2" data-name="Grupo 2" transform="translate(2.376 29.816)">
    <path id="Trazado_10" data-name="Trazado 10" d="M175.481,303.285a4.719,4.719,0,0,1,2.252.511l-.174,1.164a3.669,3.669,0,0,0-5.472,2.274,2.263,2.263,0,0,0,2.469,2.817,3.061,3.061,0,0,0,1.229-.228l.457-2.872h1.229l-.587,3.731a6.545,6.545,0,0,1-2.469.5c-1.991,0-4.036-1.229-3.579-4.1A4.55,4.55,0,0,1,175.481,303.285Z" transform="translate(-170.771 -303.285)" fill="#48494b"/>
    <path id="Trazado_11" data-name="Trazado 11" d="M210.647,311.68l1.207-7.615h3.024c1.392,0,2.861.6,2.567,2.458a2.568,2.568,0,0,1-2.186,2.176l1.925,2.981h-1.392l-1.817-2.85h-1.632l-.457,2.85Zm1.882-3.949h1.838a1.651,1.651,0,0,0,1.838-1.305c.152-.979-.587-1.229-1.4-1.229h-1.871Z" transform="translate(-203.417 -303.924)" fill="#48494b"/>
    <path id="Trazado_12" data-name="Trazado 12" d="M257.251,304.065l-.761,4.83a3.287,3.287,0,0,1-3.612,2.926c-1.7,0-3.242-.794-2.893-3l.761-4.754h1.24l-.75,4.764c-.228,1.392.511,1.838,1.664,1.838a2.117,2.117,0,0,0,2.371-1.915l.74-4.688Z" transform="translate(-235.582 -303.924)" fill="#48494b"/>
    <path id="Trazado_13" data-name="Trazado 13" d="M294.888,304.065c1.6,0,3.111.609,2.8,2.578-.294,1.893-1.784,2.426-3.59,2.426h-1.534l-.414,2.611h-1.24l1.208-7.615Zm-.065,1.131H293.18l-.435,2.741h1.534c1.109,0,1.991-.3,2.165-1.414S295.7,305.2,294.823,305.2Z" transform="translate(-269.126 -303.924)" fill="#48494b"/>
    <path id="Trazado_14" data-name="Trazado 14" d="M334.661,311.182a3.313,3.313,0,0,1-3.426-4.025,4.527,4.527,0,0,1,4.569-3.872,3.335,3.335,0,0,1,3.437,4.025A4.482,4.482,0,0,1,334.661,311.182Zm.076-1.164a3.2,3.2,0,0,0,3.252-2.806,2.2,2.2,0,0,0-2.262-2.763,3.191,3.191,0,0,0-3.242,2.807A2.2,2.2,0,0,0,334.737,310.018Z" transform="translate(-302.099 -303.285)" fill="#48494b"/>
  </g>
  <g id="Grupo_3" data-name="Grupo 3" transform="translate(0 40.481)">
    <path id="Trazado_15" data-name="Trazado 15" d="M163.944,362.107a7.873,7.873,0,0,1,4.063,1.038l-.44,2.867a5.736,5.736,0,0,0-3.517-1.09c-1.266.018-1.829.352-1.864.862-.105,1.618,6.243,1.3,5.452,5.593-.51,2.8-2.726,3.57-5.346,3.57a8.908,8.908,0,0,1-4.625-1.178l.475-2.972a6.5,6.5,0,0,0,4.063,1.337c1.266,0,2.04-.3,2.11-.844.282-2.023-6.12-1.425-5.417-5.751C159.284,363.18,161.57,362.107,163.944,362.107Z" transform="translate(-157.666 -362.107)" fill="#221f1c"/>
    <path id="Trazado_16" data-name="Trazado 16" d="M217.734,375.873l-.4-1.935h-5.1l-1,1.935h-3.412l6.789-12.311h3.517l2.884,12.311Zm-4.115-4.572h3.166l-.668-3.447a7.608,7.608,0,0,1-.141-1.354,7.666,7.666,0,0,1-.545,1.319Z" transform="translate(-198.723 -363.298)" fill="#221f1c"/>
    <path id="Trazado_17" data-name="Trazado 17" d="M282.6,363.562l-1.495,9.409h5.628l-.457,2.9h-8.881l1.952-12.311Z" transform="translate(-255.687 -363.298)" fill="#221f1c"/>
    <path id="Trazado_18" data-name="Trazado 18" d="M336.531,363.562l-1.952,12.311h-3.253l1.952-12.311Z" transform="translate(-299.84 -363.298)" fill="#221f1c"/>
    <path id="Trazado_19" data-name="Trazado 19" d="M356.222,375.873l1.952-12.311h2.708l4.115,7a16.635,16.635,0,0,1,.211-1.987l.791-5.012h3.254L367.3,375.873h-2.708l-4.1-6.982a12.868,12.868,0,0,1-.176,1.829l-.844,5.153Z" transform="translate(-320.223 -363.298)" fill="#221f1c"/>
    <path id="Trazado_20" data-name="Trazado 20" d="M423.983,375.873l-.4-1.935h-5.1l-1,1.935h-3.412l6.789-12.311h3.517l2.884,12.311Zm-4.115-4.572h3.166l-.668-3.447a7.607,7.607,0,0,1-.141-1.354,7.66,7.66,0,0,1-.545,1.319Z" transform="translate(-367.578 -363.298)" fill="#221f1c"/>
    <path id="Trazado_21" data-name="Trazado 21" d="M493.159,362.107a7.873,7.873,0,0,1,4.063,1.038l-.44,2.867a5.737,5.737,0,0,0-3.517-1.09c-1.266.018-1.829.352-1.864.862-.106,1.618,6.243,1.3,5.452,5.593-.51,2.8-2.726,3.57-5.346,3.57a8.908,8.908,0,0,1-4.625-1.178l.475-2.972a6.5,6.5,0,0,0,4.062,1.337c1.266,0,2.04-.3,2.11-.844.281-2.023-6.12-1.425-5.417-5.751C488.5,363.18,490.785,362.107,493.159,362.107Z" transform="translate(-427.192 -362.107)" fill="#221f1c"/>
  </g>
  <path id="Trazado_22" data-name="Trazado 22" d="M399.361,167.172a22.344,22.344,0,0,1-8.042,17.162c-.453.38-.443.945,0,1.09.469.153.951-.263,1.289-.559a26.358,26.358,0,1,0-41.7-30.22,5.537,5.537,0,0,0,5.033,7.538c.678-1.729,4.124-17.78,21.175-17.326,12.279.327,22.242,9.99,22.242,22.316" transform="translate(-315.561 -138.835)" fill="#ffc900"/>
  <path id="Trazado_23" data-name="Trazado 23" d="M417.967,236.642a3.026,3.026,0,1,1,3.024,3.026,3.025,3.025,0,0,1-3.024-3.026" transform="translate(-370.773 -216.433)" fill="#48494b"/>
  <path id="Trazado_24" data-name="Trazado 24" d="M393.54,315.233a27.837,27.837,0,0,0,16.607,5.54,27.316,27.316,0,0,0,17.075-5.738s1.092-.742.227-1.452c-.622-.511-1.528.053-1.982.368a28.28,28.28,0,0,1-15.2,5.111,27.834,27.834,0,0,1-16.693-4.841s-.49-.425-.635.133c-.092.352.6.877.6.877" transform="translate(-350.273 -281.733)" fill="#d1d3d5"/>
  <path id="Trazado_25" data-name="Trazado 25" d="M421.328,300.8a29.036,29.036,0,0,1-10.607,3.571,28.228,28.228,0,0,1-17.17-3.429s-.526-.38-.621.189c-.06.359.679.821.679.821a28.235,28.235,0,0,0,17.146,4.133,27.851,27.851,0,0,0,12.181-3.97,7.955,7.955,0,0,0,1.318-.834.931.931,0,0,0-.046-1.465c-.559-.439-1.033-.116-1.408.084-.145.077-.585.408-1.471.9" transform="translate(-350.273 -270.451)" fill="#aaadaf"/>
  <path id="Trazado_26" data-name="Trazado 26" d="M418.127,287.57a28.657,28.657,0,0,1-7.252,2.615,28.051,28.051,0,0,1-17.345-1.906s-.556-.334-.6.24c-.029.363.746.761.746.761a28.1,28.1,0,0,0,26.158-.448s.742-.39,1.183-.669c.481-.3.734-.911,0-1.481-.554-.427-1.25.007-1.569.168-.128.065-.827.468-1.315.72" transform="translate(-350.272 -259.727)" fill="#86898c"/>
  <path id="Trazado_27" data-name="Trazado 27" d="M414.776,274.459a27.835,27.835,0,0,1-21.27,1.344s-.584-.283-.578.294c0,.364.812.69.812.69a27.21,27.21,0,0,0,17.274.973,28.062,28.062,0,0,0,5.447-2.07s.582-.309,1.116-.622a.819.819,0,0,0,.095-1.4,1.469,1.469,0,0,0-1.413,0c-.232.139-.978.534-1.482.783" transform="translate(-350.273 -249.075)" fill="#67696c"/>
  <path id="Trazado_28" data-name="Trazado 28" d="M410.215,262.382a26.008,26.008,0,0,1-16.732,1.24s-.605-.233-.552.341c.034.363.867.619.867.619a26,26,0,0,0,16.889-.553q1.28-.459,2.488-1.026s.812-.388.99-.482a.758.758,0,0,0,.112-1.351c-.61-.471-1.538.092-1.82.227-.638.3-1.683.76-2.242.984" transform="translate(-350.274 -238.839)" fill="#48494b"/>
</svg>
