<svg width="35" height="35" viewBox="0 0 35 35" fill="none" xmlns="http://www.w3.org/2000/svg">
<path fill-rule="evenodd" clip-rule="evenodd" d="M3.31187 5.68799C3.55806 6.2214 3.79839 6.76067 4.06802 7.2765C4.15009 7.44063 4.30835 7.59303 4.47248 7.68095C4.96486 7.93887 5.48068 8.15575 6.07857 8.43125C5.52758 8.6833 5.0352 8.88259 4.57213 9.14051C4.35525 9.2636 4.14423 9.4629 4.02113 9.68564C3.76322 10.1428 3.56978 10.6411 3.31187 11.2038C3.05982 10.6528 2.86052 10.1546 2.60261 9.6915C2.47952 9.47462 2.27436 9.2636 2.05162 9.14051C1.59441 8.88259 1.10203 8.68916 0.533447 8.43125C1.10203 8.16747 1.60613 7.95645 2.08679 7.69854C2.28022 7.59303 2.47365 7.40546 2.5733 7.21202C2.81949 6.71964 3.01293 6.19795 3.22981 5.68213H3.31773L3.31187 5.68799Z" fill="#17A54D"/>
<mask id="mask0_1191_78" style="mask-type:luminance" maskUnits="userSpaceOnUse" x="0" y="5" width="7" height="7">
<path d="M3.31187 5.68799C3.55806 6.2214 3.79839 6.76067 4.06802 7.2765C4.15009 7.44063 4.30835 7.59303 4.47248 7.68095C4.96486 7.93887 5.48068 8.15575 6.07857 8.43125C5.52758 8.6833 5.0352 8.88259 4.57213 9.14051C4.35525 9.2636 4.14423 9.4629 4.02113 9.68564C3.76322 10.1428 3.56978 10.6411 3.31187 11.2038C3.05982 10.6528 2.86052 10.1546 2.60261 9.6915C2.47952 9.47462 2.27436 9.2636 2.05162 9.14051C1.59441 8.88259 1.10203 8.68916 0.533447 8.43125C1.10203 8.16747 1.60613 7.95645 2.08679 7.69854C2.28022 7.59303 2.47365 7.40546 2.5733 7.21202C2.81949 6.71964 3.01293 6.19795 3.22981 5.68213H3.31773L3.31187 5.68799Z" fill="white"/>
</mask>
<g mask="url(#mask0_1191_78)">
<path d="M7.45013 4.30493H-0.849976V12.5816H7.45013V4.30493Z" fill="#17A54D"/>
</g>
<path fill-rule="evenodd" clip-rule="evenodd" d="M8.1829 4C8.34703 4.3517 8.49943 4.7034 8.68114 5.04337C8.7339 5.14888 8.83941 5.25439 8.94492 5.30715C9.26731 5.47714 9.60728 5.61782 10 5.79953C9.63659 5.96365 9.3142 6.09847 9.00939 6.2626C8.86285 6.34466 8.72804 6.47362 8.64597 6.62016C8.47598 6.92497 8.34703 7.24736 8.17704 7.61664C8.01291 7.25322 7.8781 6.93083 7.70811 6.62602C7.62604 6.47948 7.49123 6.34466 7.35055 6.26846C7.0516 6.09847 6.72335 5.97538 6.35406 5.80539C6.72921 5.62954 7.05746 5.49472 7.37399 5.32473C7.50295 5.25439 7.62604 5.1313 7.69052 5.00234C7.85465 4.67995 7.97774 4.33411 8.11842 4H8.17704H8.1829Z" fill="#17A54D"/>
<mask id="mask1_1191_78" style="mask-type:luminance" maskUnits="userSpaceOnUse" x="6" y="4" width="4" height="4">
<path d="M8.1829 4C8.34703 4.3517 8.49943 4.7034 8.68114 5.04337C8.7339 5.14888 8.83941 5.25439 8.94492 5.30715C9.26731 5.47714 9.60728 5.61782 10 5.79953C9.63659 5.96365 9.3142 6.09847 9.00939 6.2626C8.86285 6.34466 8.72804 6.47362 8.64597 6.62016C8.47598 6.92497 8.34703 7.24736 8.17704 7.61664C8.01291 7.25322 7.8781 6.93083 7.70811 6.62602C7.62604 6.47948 7.49123 6.34466 7.35055 6.26846C7.0516 6.09847 6.72335 5.97538 6.35406 5.80539C6.72921 5.62954 7.05746 5.49472 7.37399 5.32473C7.50295 5.25439 7.62604 5.1313 7.69052 5.00234C7.85465 4.67995 7.97774 4.33411 8.11842 4H8.17704H8.1829Z" fill="white"/>
</mask>
<g mask="url(#mask1_1191_78)">
<path d="M12.0046 1.9834H4.33759V9.63872H12.0046V1.9834Z" fill="#17A54D"/>
</g>
<path fill-rule="evenodd" clip-rule="evenodd" d="M1.8347 11.626C1.99882 11.9777 2.15123 12.3294 2.33294 12.6694C2.38569 12.7749 2.4912 12.8804 2.59671 12.9331C2.9191 13.1031 3.25908 13.2438 3.65181 13.4255C3.28839 13.5896 2.966 13.7244 2.66119 13.8886C2.51465 13.9706 2.37983 14.0996 2.29777 14.2461C2.12778 14.5509 1.99882 14.8733 1.82884 15.2426C1.66471 14.8792 1.52989 14.5568 1.3599 14.252C1.27784 14.1055 1.14302 13.9706 0.996481 13.8944C0.691675 13.7244 0.369284 13.6014 0 13.4314C0.375146 13.2555 0.70926 13.1207 1.01993 12.9507C1.14888 12.8804 1.27198 12.7573 1.33646 12.6283C1.50058 12.3059 1.62368 11.9601 1.77022 11.626H1.82884H1.8347Z" fill="#17A54D"/>
<mask id="mask2_1191_78" style="mask-type:luminance" maskUnits="userSpaceOnUse" x="0" y="11" width="4" height="5">
<path d="M1.8347 11.626C1.99882 11.9777 2.15123 12.3294 2.33294 12.6694C2.38569 12.7749 2.4912 12.8804 2.59671 12.9331C2.9191 13.1031 3.25908 13.2438 3.65181 13.4255C3.28839 13.5896 2.966 13.7244 2.66119 13.8886C2.51465 13.9706 2.37983 14.0996 2.29777 14.2461C2.12778 14.5509 1.99882 14.8733 1.82884 15.2426C1.66471 14.8792 1.52989 14.5568 1.3599 14.252C1.27784 14.1055 1.14302 13.9706 0.996481 13.8944C0.691675 13.7244 0.369284 13.6014 0 13.4314C0.375146 13.2555 0.70926 13.1207 1.01993 12.9507C1.14888 12.8804 1.27198 12.7573 1.33646 12.6283C1.50058 12.3059 1.62368 11.9601 1.77022 11.626H1.82884H1.8347Z" fill="white"/>
</mask>
<g mask="url(#mask2_1191_78)">
<path d="M5.66821 9.60962H-2.01056V17.2649H5.66821V9.60962Z" fill="#17A54D"/>
</g>
<path d="M30.4642 31H8.53576C6.58089 31 5 29.4058 5 27.4535V18.2805H34V27.4535C34 29.4143 32.4106 31 30.4642 31ZM6.81038 20.0963V27.4535C6.81038 28.4084 7.58382 29.1841 8.53576 29.1841H30.4642C31.4162 29.1841 32.1896 28.4084 32.1896 27.4535V20.0963H6.81038ZM34 18.272H5V14.5465C5 12.5857 6.58939 11 8.53576 11H30.4642C32.4191 11 34 12.5942 34 14.5465V18.272ZM6.81038 16.4561H32.1896V14.555C32.1896 13.6002 31.4162 12.8244 30.4642 12.8244H8.53576C7.58382 12.8244 6.81038 13.6002 6.81038 14.555V16.4561Z" fill="#17A54D"/>
</svg>
